<svg xmlns="http://www.w3.org/2000/svg" width="512" height="512" viewBox="0 0 64 64" role="img" aria-label="Leia Mais Bíblia"><title>Leia Mais Bíblia</title><defs><linearGradient id="g" x1="0" y1="0" x2="1" y2="1"><stop offset="0" stop-color="#1B3A5C"/><stop offset="1" stop-color="#12294A"/></linearGradient></defs>
<rect width="64" height="64" rx="14" fill="url(#g)"/><g stroke="#F2B84B" stroke-width="4.6" stroke-linecap="round" fill="none"><path d="M32 8 V27"/><path d="M25 14.5 H39"/></g><path d="M32 50 C26 45.5 18 44.5 11 46.5 V26.5 C18 24.5 26 25.5 32 30 Z" fill="#FFF6E0"/>
<path d="M32 50 C38 45.5 46 44.5 53 46.5 V26.5 C46 24.5 38 25.5 32 30 Z" fill="#FFF6E0" opacity=".92"/><g stroke="#1B3A5C" stroke-width="1.4" stroke-linecap="round" opacity=".28" fill="none">
<path d="M16 31.5 C20 30.8 24.5 31.3 28 33.5"/><path d="M16 36.5 C20 35.8 24.5 36.3 28 38.5"/><path d="M16 41.5 C20 40.8 24.5 41.3 28 43.5"/>
<path d="M48 31.5 C44 30.8 39.5 31.3 36 33.5"/><path d="M48 36.5 C44 35.8 39.5 36.3 36 38.5"/><path d="M48 41.5 C44 40.8 39.5 41.3 36 43.5"/></g></svg>